<svg version="1.2" baseProfile="tiny" xmlns="http://www.w3.org/2000/svg" width="25.75" height="80" viewBox="0 0 25.75 80"><path fill="#DB0C1B" d="M24.777 35.418v-5.207H1.234v19.848h23.543v-5.207H5.943v-9.434h18.834zM14.756 55.621h-4.678L0 79.998h5.709l6.604-16.908 6.673 16.908h5.847L14.756 55.621zm-2.34-30.705c6.843 0 12.392-5.576 12.392-12.458C24.808 5.579 19.259 0 12.416 0 5.571 0 .025 5.579.025 12.458c0 6.882 5.546 12.458 12.391 12.458zm0-19.673c3.965 0 7.177 3.23 7.177 7.215s-3.212 7.214-7.177 7.214c-3.963 0-7.176-3.229-7.176-7.214 0-3.985 3.213-7.215 7.176-7.215z"/></svg>