<?xml version="1.0" encoding="utf-8"?>
<!-- Generator: Adobe Illustrator 16.0.0, SVG Export Plug-In . SVG Version: 6.00 Build 0)  -->
<svg version="1.2" baseProfile="tiny" id="Ebene_1" xmlns="http://www.w3.org/2000/svg" xmlns:xlink="http://www.w3.org/1999/xlink"
	 x="0px" y="0px" width="25.75px" height="80px" viewBox="0 0 25.75 80" xml:space="preserve">
<g>
	<path fill="#DB0C1B" d="M24.777,35.418v-5.207H1.234v19.848h23.543v-5.207H5.943v-9.434H24.777z M14.756,55.621h-4.678L0,79.998
		h5.709l6.604-16.908l6.673,16.908h5.847L14.756,55.621z M12.416,24.916c6.843,0,12.392-5.576,12.392-12.458
		C24.808,5.579,19.259,0,12.416,0C5.571,0,0.025,5.579,0.025,12.458C0.025,19.34,5.571,24.916,12.416,24.916z M12.416,5.243
		c3.965,0,7.177,3.23,7.177,7.215c0,3.985-3.212,7.214-7.177,7.214c-3.963,0-7.176-3.229-7.176-7.214
		C5.24,8.473,8.453,5.243,12.416,5.243z"/>
</g>
</svg>
