<?xml version="1.0" encoding="utf-8"?>
<!-- Generator: Adobe Illustrator 19.2.1, SVG Export Plug-In . SVG Version: 6.00 Build 0)  -->
<svg version="1.1" id="Ebene_1" xmlns="http://www.w3.org/2000/svg" xmlns:xlink="http://www.w3.org/1999/xlink" x="0px" y="0px"
	 width="128.2px" height="24.7px" viewBox="0 0 128.2 24.7" style="enable-background:new 0 0 128.2 24.7;" xml:space="preserve">
<style type="text/css">
	.st0{fill:#FFFFFF;}
</style>
<path class="st0" d="M16.1,2l-1.5,1.9c-1.4-1.1-2.8-1.5-4.6-1.5c-2.8,0-4.8,1.4-5.9,4.1c-0.7,1.6-1,3.5-1,6.4c0,2.3,0.2,3.7,0.8,5.1
	c1.2,3,3.7,4.4,6.4,4.4c1.8,0,3.2-0.5,4.7-1.5l1.5,2c-1.9,1.3-4.3,2-6.7,2C4,24.7,0,19.7,0,12.4C0,5.3,4.3,0,10.1,0
	C12.4,0,14.5,0.7,16.1,2"/>
<path class="st0" d="M24.9,14.6h7.4c0,0-1.9-6-2.5-8.1l-1.2-3.7l-1.2,3.5C27.3,6.9,24.9,14.6,24.9,14.6 M30.6,0.3l8,24h-3.3L33,17
	h-9l-2.3,7.4h-2.9l8-24H30.6z"/>
<path class="st0" d="M45.2,2.9V22h2.6c1.5,0,2.1,0,2.9-0.2c1.4-0.2,2.8-1.1,3.5-2.3c1.1-1.8,1.6-4.1,1.6-6.7c0-3.6-0.5-5.8-2.1-7.8
	c-1.6-1.9-3.1-2.2-5.6-2.2H45.2z M42.3,0.5h4.8c3.7,0,5.4,0.2,7.7,1.9c2.7,2,4.1,5.4,4.1,10.1c0,4.2-1.1,7.1-2.7,8.9
	c-2.1,2.3-3.8,3-7.6,3h-6.3V0.5z"/>
<path class="st0" d="M64.7,0.3h4.2L73.2,16c0.5,1.7,0.6,2.3,0.9,4.2c0.4-2,0.6-2.7,0.9-3.9l4.5-16h4.2l2.1,24H83L81.6,6.7
	c-0.1-1.5-0.2-4.1-0.2-4.1c-0.2,1.2-0.7,2.8-0.9,3.8l-5.1,17.9h-2.5L68.1,7.3c-0.5-1.8-0.8-3-1.2-4.7c0,0-0.2,3.2-0.3,4.7l-1.3,17.1
	h-2.8L64.7,0.3z"/>
<path class="st0" d="M94.8,14.6h7.4c0,0-1.9-6-2.5-8.1l-1.2-3.7l-1.2,3.5C97.2,6.9,94.8,14.6,94.8,14.6 M100.6,0.3l8,24h-3.3L103,17
	h-9l-2.3,7.4h-2.9l8-24H100.6z"/>
<path class="st0" d="M112.2,0.4h3.3l8,15.3c0.9,1.7,2.2,5,2.2,5s-0.3-4.1-0.3-7.3l-0.1-13h2.8v24h-3l-7.7-14.7
	c-1.1-2.2-2.2-4.4-2.7-5.7c0.2,2,0.3,4.1,0.3,6.5l0.1,13.9h-3V0.4z"/>
</svg>
