<svg id="Ebene_1" xmlns="http://www.w3.org/2000/svg" width="128.2" height="24.7" viewBox="0 0 128.2 24.7"><style>.st0{fill:#fff}</style><path class="st0" d="M16.1 2l-1.5 1.9c-1.4-1.1-2.8-1.5-4.6-1.5-2.8 0-4.8 1.4-5.9 4.1-.7 1.6-1 3.5-1 6.4 0 2.3.2 3.7.8 5.1 1.2 3 3.7 4.4 6.4 4.4 1.8 0 3.2-.5 4.7-1.5l1.5 2c-1.9 1.3-4.3 2-6.7 2C4 24.7 0 19.7 0 12.4 0 5.3 4.3 0 10.1 0c2.3 0 4.4.7 6 2m8.8 12.6h7.4s-1.9-6-2.5-8.1l-1.2-3.7-1.2 3.5c-.1.6-2.5 8.3-2.5 8.3M30.6.3l8 24h-3.3L33 17h-9l-2.3 7.4h-2.9l8-24h3.8zm14.6 2.6V22h2.6c1.5 0 2.1 0 2.9-.2 1.4-.2 2.8-1.1 3.5-2.3 1.1-1.8 1.6-4.1 1.6-6.7 0-3.6-.5-5.8-2.1-7.8-1.6-1.9-3.1-2.2-5.6-2.2h-2.9zM42.3.5h4.8c3.7 0 5.4.2 7.7 1.9 2.7 2 4.1 5.4 4.1 10.1 0 4.2-1.1 7.1-2.7 8.9-2.1 2.3-3.8 3-7.6 3h-6.3V.5zM64.7.3h4.2L73.2 16c.5 1.7.6 2.3.9 4.2.4-2 .6-2.7.9-3.9l4.5-16h4.2l2.1 24H83L81.6 6.7c-.1-1.5-.2-4.1-.2-4.1-.2 1.2-.7 2.8-.9 3.8l-5.1 17.9h-2.5l-4.8-17c-.5-1.8-.8-3-1.2-4.7 0 0-.2 3.2-.3 4.7l-1.3 17.1h-2.8L64.7.3zm30.1 14.3h7.4s-1.9-6-2.5-8.1l-1.2-3.7-1.2 3.5c-.1.6-2.5 8.3-2.5 8.3M100.6.3l8 24h-3.3L103 17h-9l-2.3 7.4h-2.9l8-24h3.8zm11.6.1h3.3l8 15.3c.9 1.7 2.2 5 2.2 5s-.3-4.1-.3-7.3l-.1-13h2.8v24h-3l-7.7-14.7c-1.1-2.2-2.2-4.4-2.7-5.7.2 2 .3 4.1.3 6.5l.1 13.9h-3V.4z"/></svg>