<?xml version="1.0" encoding="utf-8"?>
<!-- Generator: Adobe Illustrator 16.0.0, SVG Export Plug-In . SVG Version: 6.00 Build 0)  -->
<svg version="1.2" baseProfile="tiny" id="Ebene_1" xmlns="http://www.w3.org/2000/svg" xmlns:xlink="http://www.w3.org/1999/xlink"
	 x="0px" y="0px" width="174.078px" height="190.531px" viewBox="0 0 174.078 190.531" xml:space="preserve">
<g>
	<path fill="#DD0E1B" d="M78.522,120.959H48.788v69.572H0V0h90.936c23.095,0,40.849,5.197,53.261,15.59
		c12.414,10.392,18.621,25.403,18.621,45.034c0,13.856-3.176,25.404-9.527,34.642c-6.35,9.238-15.588,16.072-27.713,20.497
		l48.5,74.769h-54.852L78.522,120.959z M48.788,85.739h33.776c10.582,0,18.282-1.921,23.095-5.773
		c4.809-3.848,7.217-10.005,7.217-18.476c0-8.273-2.408-14.335-7.217-18.188c-4.812-3.848-12.513-5.774-23.095-5.774H48.788V85.739z
		"/>
</g>
</svg>
