<?xml version="1.0" encoding="utf-8"?>
<!-- Generator: Adobe Illustrator 16.0.0, SVG Export Plug-In . SVG Version: 6.00 Build 0)  -->
<svg version="1.2" baseProfile="tiny" id="Ebene_1" xmlns="http://www.w3.org/2000/svg" xmlns:xlink="http://www.w3.org/1999/xlink"
	 x="0px" y="0px" viewBox="0 0 49.986 49.987" xml:space="preserve">
<g>
	<path fill="#666666" d="M24.992,29.997c2.758,0,5.006-2.245,5.006-5.004c0-1.089-0.356-2.095-0.947-2.917
		c-0.91-1.26-2.388-2.087-4.058-2.087s-3.146,0.825-4.058,2.086c-0.593,0.822-0.946,1.827-0.946,2.917
		C19.988,27.752,22.234,29.997,24.992,29.997z M35.919,18.872v-4.818l-0.629,0.002l-4.191,0.013l0.017,4.819L35.919,18.872z
		 M24.993,0C11.212,0,0,11.212,0,24.993s11.212,24.993,24.993,24.993s24.993-11.212,24.993-24.993S38.774,0,24.993,0z
		 M39.208,33.714c0,3.031-2.465,5.495-5.494,5.495H16.272c-3.03,0-5.493-2.463-5.493-5.495v-17.44c0-3.03,2.463-5.494,5.493-5.494
		h17.44c3.03,0,5.495,2.463,5.495,5.494V33.714z M32.768,24.993c0,4.286-3.486,7.775-7.774,7.775c-4.287,0-7.773-3.489-7.773-7.775
		c0-1.031,0.205-2.017,0.571-2.917h-4.243v11.638c0,1.504,1.222,2.722,2.725,2.722h17.439c1.503,0,2.724-1.218,2.724-2.722V22.077
		h-4.243C32.56,22.977,32.768,23.962,32.768,24.993z"/>
</g>
</svg>
