<?xml version="1.0" encoding="utf-8"?>
<!-- Generator: Adobe Illustrator 16.0.0, SVG Export Plug-In . SVG Version: 6.00 Build 0)  -->
<svg version="1.2" baseProfile="tiny" id="Ebene_1" xmlns="http://www.w3.org/2000/svg" xmlns:xlink="http://www.w3.org/1999/xlink"
	 x="0px" y="0px" viewBox="0 0 49.986 49.987" xml:space="preserve">
<path fill="#666666" d="M24.993,0C11.212,0,0,11.212,0,24.993c0,13.781,11.212,24.994,24.993,24.994s24.993-11.213,24.993-24.994
	C49.986,11.212,38.774,0,24.993,0z M31.209,25.873h-4.065c0,6.497,0,14.495,0,14.495h-6.026c0,0,0-7.92,0-14.495h-2.864v-5.122
	h2.864v-3.313c0-2.373,1.128-6.081,6.081-6.081l4.463,0.017v4.972c0,0-2.713,0-3.241,0c-0.527,0-1.276,0.264-1.276,1.396v3.01h4.591
	L31.209,25.873z"/>
</svg>
