<?xml version="1.0" encoding="utf-8"?>
<!-- Generator: Adobe Illustrator 16.0.0, SVG Export Plug-In . SVG Version: 6.00 Build 0)  -->
<svg version="1.2" baseProfile="tiny" id="Ebene_1" xmlns="http://www.w3.org/2000/svg" xmlns:xlink="http://www.w3.org/1999/xlink"
	 x="0px" y="0px" viewBox="0 0 49.986 49.987" xml:space="preserve">
<path fill="#666666" d="M24.993,0C11.212,0,0,11.212,0,24.993s11.212,24.994,24.993,24.994s24.993-11.212,24.993-24.994
	S38.774,0,24.993,0z M36.143,19.273c0.012,0.248,0.018,0.498,0.018,0.747c0,7.602-5.785,16.366-16.368,16.366
	c-3.249,0-6.273-0.951-8.818-2.584c0.45,0.053,0.908,0.081,1.372,0.081c2.696,0,5.176-0.92,7.145-2.463
	c-2.517-0.046-4.642-1.709-5.374-3.996c0.351,0.069,0.713,0.104,1.082,0.104c0.524,0,1.033-0.071,1.516-0.201
	c-2.632-0.529-4.613-2.854-4.613-5.64c0-0.024,0-0.049,0-0.072c0.775,0.43,1.662,0.689,2.605,0.719
	c-1.543-1.03-2.559-2.792-2.559-4.787c0-1.055,0.283-2.043,0.778-2.894c2.836,3.481,7.076,5.771,11.856,6.012
	c-0.099-0.422-0.148-0.859-0.148-1.312c0-3.176,2.575-5.752,5.753-5.752c1.654,0,3.149,0.699,4.198,1.816
	c1.312-0.258,2.542-0.735,3.654-1.396c-0.432,1.344-1.342,2.47-2.531,3.183c1.165-0.139,2.274-0.447,3.305-0.905
	C38.243,17.451,37.267,18.464,36.143,19.273z"/>
</svg>
