<?xml version="1.0" encoding="utf-8"?>
<!-- Generator: Adobe Illustrator 16.0.0, SVG Export Plug-In . SVG Version: 6.00 Build 0)  -->
<svg version="1.2" baseProfile="tiny" id="Ebene_1" xmlns="http://www.w3.org/2000/svg" xmlns:xlink="http://www.w3.org/1999/xlink"
	 x="0px" y="0px" viewBox="0 0 49.986 49.987" xml:space="preserve">
<path fill="#666666" d="M24.999,0C11.193,0,0,11.192,0,24.999c0,13.807,11.193,24.999,24.999,24.999s24.999-11.192,24.999-24.999
	C49.998,11.192,38.805,0,24.999,0z M15.975,31.976h-5.016c-0.302,0-0.528-0.136-0.655-0.343c-0.133-0.214-0.14-0.492,0-0.769
	l5.328-9.403c0.006-0.011,0.006-0.017,0-0.029l-3.391-5.871c-0.14-0.279-0.16-0.555-0.029-0.769
	c0.128-0.207,0.382-0.313,0.685-0.313h5.015c0.77,0,1.146,0.496,1.396,0.94c0,0,3.428,5.979,3.447,6.012
	c-0.202,0.358-5.413,9.575-5.413,9.575C17.085,31.469,16.725,31.976,15.975,31.976z M39.689,8.707L28.585,28.339
	c-0.007,0.011-0.007,0.023,0,0.033l7.069,12.917c0.14,0.278,0.144,0.561,0.011,0.775c-0.127,0.206-0.363,0.321-0.666,0.321h-5.01
	c-0.768,0-1.151-0.511-1.4-0.955c0,0-7.107-13.04-7.125-13.074c0.354-0.629,11.158-19.789,11.158-19.789
	c0.269-0.483,0.595-0.955,1.343-0.955h5.066c0.303,0,0.539,0.114,0.667,0.32C39.831,8.147,39.827,8.429,39.689,8.707z"/>
</svg>
