<?xml version="1.0" encoding="utf-8"?>
<!-- Generator: Adobe Illustrator 19.2.1, SVG Export Plug-In . SVG Version: 6.00 Build 0)  -->
<svg version="1.1" id="Ebene_1" xmlns="http://www.w3.org/2000/svg" xmlns:xlink="http://www.w3.org/1999/xlink" x="0px" y="0px"
	 width="70.6px" height="106.6px" viewBox="0 0 70.6 106.6" enable-background="new 0 0 70.6 106.6" xml:space="preserve">
<g>
	<path fill="#FFFFFF" d="M70.3,13c-0.3-0.5-7.9-13-35-13S0.6,12.5,0.3,13L0,13.4v41.2c0,14.1,31,28.9,34.5,30.6l0.8,0.4l0.8-0.4
		c3.5-1.7,34.5-16.5,34.5-30.6V13.4L70.3,13z M35.3,3.8c22.2,0,30.1,8.8,31.5,10.8v13.2l-11.6,0l-6.5,13l0-31l-9,0l0,4.5l4.5,0l0,45
		l-4,0v0l-4.5,0l0-24.8c0-1.8-0.7-3.4-2-4.7c-1.3-1.3-2.9-1.9-4.8-1.9c-1.7,0-3.2,0.6-4.5,1.7c-1.3-1.2-2.8-1.7-4.5-1.7
		c-0.8,0-1.5,0.1-2.2,0.4v-0.4l-13.9,0V14.5C5.2,12.6,13.1,3.8,35.3,3.8z M65.3,59.2l-5.6,0c-0.5-3.9-1.1-7.8-1.7-11.5
		c-0.6-3.7-1.4-7.3-2.5-10.8l2.3-4.7h8.9v22.3C66.8,56.1,66.3,57.6,65.3,59.2z M3.8,32.2h9.4l0,27l-8,0c-0.9-1.6-1.4-3.1-1.4-4.6
		V32.2z M35.3,81.4C28.6,78.2,15.8,71,8.7,63.7l8.1,0l0.8-29.3c0-0.6,0.2-1.2,0.6-1.6c0.5-0.4,1-0.6,1.6-0.6c0.6,0,1.1,0.2,1.6,0.6
		c0.4,0.4,0.6,1,0.6,1.6l0,29.2l4.5,0l0-29.3c0-0.6,0.2-1.1,0.7-1.5c0.5-0.5,1-0.7,1.6-0.7c0.6,0,1.1,0.2,1.5,0.7
		c0.5,0.5,0.7,1,0.7,1.5l0,29.4l8.5,0v0l9,0l0-13l3.8-7.7c0.7,3.3,1.4,6.7,1.9,10.2c0.5,3.4,1,7,1.4,10.6l6,0
		C54.7,71.1,41.9,78.2,35.3,81.4z"/>
	<g>
		<path fill="#FFFFFF" d="M2.1,94l6.2,6.3l6.2-6.3v12.7h-2.8v-6.1l-3.4,3.4l-3.4-3.4v6.1H2.1V94z"/>
		<path fill="#FFFFFF" d="M25,94.1h2.8v12.5H25V94.1z"/>
		<path fill="#FFFFFF" d="M38.3,94.1h2.8v6.3l4.4-6.3h3.2l-4.4,6.3l5,6.2h-3.5l-4.7-5.9v5.9h-2.8V94.1z"/>
		<path fill="#FFFFFF" d="M63.7,94l6.2,12.7h-3l-0.9-1.9h-4.6l-0.9,1.9h-3L63.7,94z M64.8,102.4l-1.2-2.6l-1.2,2.6H64.8z"/>
	</g>
</g>
</svg>
